<?xml version="1.0" standalone="no"?>
<!DOCTYPE svg PUBLIC "-//W3C//DTD SVG 20010904//EN"
 "http://www.w3.org/TR/2001/REC-SVG-20010904/DTD/svg10.dtd">
<svg version="1.0" xmlns="http://www.w3.org/2000/svg"
 width="1280.000000pt" height="960.000000pt" viewBox="0 0 1280.000000 960.000000"
 preserveAspectRatio="xMidYMid meet">
<metadata>
Created by potrace 1.15, written by Peter Selinger 2001-2017
</metadata>
<g transform="translate(0.000000,960.000000) scale(0.100000,-0.100000)"
fill="#000000" stroke="none">
<path d="M0 4800 l0 -4800 6400 0 6400 0 0 4800 0 4800 -6400 0 -6400 0 0
-4800z m10325 3310 l1065 0 0 -3305 0 -3305 -1070 0 -1070 0 0 -150 0 -150
-2830 0 -2830 0 0 150 0 150 -1079 0 -1079 0 -7 1422 c-4 783 -5 1619 -1 1858
3 239 5 1086 6 1883 l0 1447 1075 0 1075 0 0 145 0 145 2838 2 2837 3 3 -147
3 -148 1064 0z"/>
</g>
</svg>
